<?xml version="1.0" standalone="no"?>
<!DOCTYPE svg PUBLIC "-//W3C//DTD SVG 20010904//EN"
 "http://www.w3.org/TR/2001/REC-SVG-20010904/DTD/svg10.dtd">
<svg version="1.0" xmlns="http://www.w3.org/2000/svg"
 width="1024.000000pt" height="1024.000000pt" viewBox="0 0 1024.000000 1024.000000"
 preserveAspectRatio="xMidYMid meet">

<g transform="translate(0.000000,1024.000000) scale(0.100000,-0.100000)"
fill="#000000" stroke="none">
<path d="M3443 8151 c-121 -88 -109 -227 24 -295 28 -14 59 -15 235 -10 232 8
245 5 325 -78 75 -77 80 -92 293 -748 240 -742 322 -984 355 -1051 57 -112
202 -237 345 -295 107 -43 178 -47 1000 -48 l775 -1 76 31 c122 49 236 122
319 204 67 66 84 91 147 215 39 77 82 172 97 210 15 39 40 99 56 135 79 177
110 249 129 296 25 65 119 279 184 419 46 101 76 171 205 480 45 106 46 114
47 212 l0 103 -35 35 c-24 24 -71 50 -144 80 -103 43 -108 44 -102 23 34 -125
32 -310 -4 -437 -26 -92 -78 -206 -121 -266 -18 -25 -66 -73 -106 -106 -40
-33 -73 -65 -73 -71 0 -12 -113 -293 -190 -473 -28 -66 -69 -164 -90 -217 -87
-216 -156 -345 -217 -409 -66 -70 -151 -121 -243 -146 -60 -17 -122 -18 -755
-17 -610 0 -697 2 -752 17 -137 36 -242 116 -297 226 -31 61 -128 350 -391
1166 -58 182 -122 371 -141 422 -71 185 -170 302 -324 379 -47 24 -70 28 -199
35 -80 4 -200 8 -267 8 -118 1 -122 0 -161 -28z"/>
<path d="M6210 7990 c-19 -5 -64 -12 -100 -15 -36 -3 -72 -10 -80 -15 -12 -7
-15 -37 -15 -147 0 -76 3 -153 7 -170 l8 -33 -198 -1 c-108 -1 -419 -2 -689
-3 -271 0 -493 -5 -493 -9 0 -4 6 -23 14 -42 8 -18 24 -67 35 -107 11 -40 33
-104 49 -141 l29 -68 379 1 c209 0 402 3 429 5 28 3 259 2 515 -2 l465 -8 -76
75 c-132 131 -186 280 -196 543 -7 164 -2 156 -83 137z"/>
<path d="M6940 7661 c14 -11 30 -21 35 -21 11 0 -7 14 -40 31 -13 7 -12 3 5
-10z"/>
<path d="M6720 7640 c0 -12 13 -34 28 -48 27 -25 27 -27 13 -59 -8 -18 -21
-33 -28 -33 -7 0 -13 -4 -13 -10 0 -5 -6 -10 -14 -10 -8 0 -18 -9 -21 -20 -8
-26 -37 -26 -53 1 -9 13 -19 18 -30 14 -9 -3 -14 -3 -11 0 4 3 -7 20 -22 36
-16 17 -26 35 -23 40 3 5 1 9 -4 9 -5 0 -15 14 -22 30 -7 17 -15 29 -17 26 -3
-2 12 -36 32 -74 69 -132 166 -217 314 -275 67 -27 87 -30 176 -29 183 1 312
56 438 186 70 73 101 122 82 129 -7 3 -17 1 -23 -5 -7 -7 -16 -6 -30 1 -11 6
-48 11 -81 11 -32 0 -61 3 -64 8 -2 4 -2 1 -1 -5 2 -7 -3 -13 -10 -13 -8 0
-16 -5 -18 -11 -2 -7 -10 -10 -18 -7 -9 3 -2 15 23 41 57 56 44 55 -20 -2 -68
-61 -119 -87 -194 -101 -65 -12 -170 0 -218 25 -42 21 -107 80 -143 129 -24
34 -28 36 -28 16z m812 -112 c-7 -7 -12 -8 -12 -2 0 14 12 26 19 19 2 -3 -1
-11 -7 -17z"/>
<path d="M7048 7633 c7 -3 16 -2 19 1 4 3 -2 6 -13 5 -11 0 -14 -3 -6 -6z"/>
<path d="M3800 7613 c-27 -3 -39 -7 -31 -12 8 -5 15 -39 18 -88 6 -88 -7 -131
-67 -220 -17 -25 -29 -47 -28 -49 5 -4 357 -7 360 -2 1 1 -7 30 -19 63 -30 85
-79 244 -88 283 -6 31 -8 32 -53 30 -26 -1 -67 -3 -92 -5z"/>
<path d="M8260 7410 c0 -24 21 -48 51 -59 39 -14 99 -14 119 -1 11 7 -1 10
-42 10 -66 0 -108 13 -108 34 0 8 -4 18 -10 21 -5 3 -10 1 -10 -5z"/>
<path d="M3755 7030 c-143 -3 -226 -7 -185 -8 82 -3 167 -15 176 -25 4 -3 9
-38 12 -77 4 -55 1 -80 -13 -110 -10 -22 -22 -40 -27 -40 -4 0 -8 -20 -8 -44
0 -43 1 -45 33 -49 31 -4 31 -4 -5 -5 -21 -1 -38 -6 -38 -12 0 -6 106 -10 275
-12 151 -2 275 -2 275 0 0 1 -24 76 -54 165 -29 89 -57 177 -61 195 -7 32 -7
32 -63 30 -31 -1 -174 -5 -317 -8z m215 -242 c0 -49 -18 -39 -25 14 -3 29 -8
62 -11 73 -2 11 5 2 16 -20 11 -22 20 -52 20 -67z"/>
<path d="M6905 7033 c-159 -2 -273 -7 -279 -13 -6 -6 -28 -10 -50 -10 -35 0
-38 -1 -22 -13 17 -13 17 -14 1 -30 -9 -9 -12 -17 -6 -17 19 0 12 -17 -9 -23
-12 -3 -20 -14 -20 -26 0 -16 -6 -21 -25 -21 -16 0 -28 -7 -31 -17 -3 -10 -10
-26 -15 -35 -5 -10 -9 -29 -9 -43 0 -15 -6 -25 -14 -25 -20 0 -27 -48 -7 -53
9 -2 4 -4 -11 -2 -15 1 -25 -2 -23 -5 4 -7 421 -24 579 -25 l68 0 64 105 c59
96 94 170 110 235 5 20 3 25 -12 23 -11 -2 -140 -4 -289 -5z"/>
<path d="M3253 7023 c9 -2 25 -2 35 0 9 3 1 5 -18 5 -19 0 -27 -2 -17 -5z"/>
<path d="M3428 7023 c12 -2 30 -2 40 0 9 3 -1 5 -23 4 -22 0 -30 -2 -17 -4z"/>
<path d="M4830 7014 c0 -48 69 -248 106 -306 l26 -41 316 6 c173 4 362 7 420
7 l105 0 -32 30 c-17 17 -31 35 -31 40 0 6 -4 10 -10 10 -5 0 -10 9 -10 20 0
11 5 20 10 20 6 0 10 9 10 21 0 11 -4 18 -9 15 -5 -3 -14 8 -20 26 -13 38 -14
98 -2 98 5 0 11 10 13 22 2 16 12 24 33 28 72 14 -88 20 -496 20 -391 0 -429
-1 -429 -16z"/>
<path d="M8330 6765 c-32 -39 34 -137 116 -171 49 -21 180 -18 229 5 36 16
104 80 106 99 5 42 5 51 0 50 -3 -1 -19 5 -36 13 -21 10 -84 15 -216 17 -160
3 -187 1 -199 -13z"/>
<path d="M3528 6653 c6 -2 18 -2 25 0 6 3 1 5 -13 5 -14 0 -19 -2 -12 -5z"/>
<path d="M5020 6448 c0 -30 60 -201 84 -243 17 -29 42 -53 69 -67 41 -22 54
-23 517 -30 261 -5 597 -7 746 -6 l271 3 35 27 c98 74 174 178 213 287 l14 41
-277 0 c-152 -1 -335 -5 -407 -11 -71 -5 -134 -9 -140 -8 -5 0 -224 2 -485 4
-261 2 -512 7 -557 10 -66 5 -83 4 -83 -7z"/>
<path d="M2964 6425 c-61 -30 -83 -66 -91 -149 -7 -83 19 -144 81 -184 l41
-27 726 0 725 0 -32 80 c-30 74 -74 213 -88 277 l-6 27 -653 0 -654 1 -49 -25z"/>
<path d="M2414 6335 c-49 -29 -67 -64 -58 -114 9 -51 21 -69 57 -91 42 -26 99
-26 121 -1 17 19 17 19 -3 14 -16 -4 -20 -2 -16 10 5 11 0 13 -22 9 -15 -2
-32 -8 -38 -12 -5 -4 -21 -7 -35 -6 -22 1 -27 8 -38 55 -15 61 -10 99 16 108
9 4 19 9 22 12 9 11 76 31 104 31 15 0 45 -12 67 -27 34 -25 39 -33 39 -70 0
-23 -4 -45 -10 -48 -5 -3 -15 -16 -22 -28 -10 -20 -10 -21 6 -8 24 20 46 65
46 95 0 19 -12 35 -47 61 -61 44 -126 48 -189 10z"/>
<path d="M7845 6148 c-88 -5 -170 -10 -182 -10 -21 0 -22 -3 -17 -42 9 -55 25
-84 71 -128 59 -57 96 -68 226 -68 102 0 118 3 165 26 68 34 125 99 139 159 6
25 8 43 5 40 -3 -3 -13 2 -23 11 -23 21 -168 26 -384 12z"/>
<path d="M4290 5850 c-30 -4 -45 -7 -32 -8 30 -3 58 -29 77 -75 22 -54 19 -98
-11 -138 -14 -19 -33 -52 -43 -74 -10 -22 -31 -53 -47 -69 l-29 -29 280 6
c154 2 288 8 297 12 38 15 28 37 -60 123 -87 85 -182 214 -182 246 0 14 -14
16 -97 14 -54 -1 -123 -4 -153 -8z"/>
<path d="M2353 5793 c9 -2 23 -2 30 0 6 3 -1 5 -18 5 -16 0 -22 -2 -12 -5z"/>
<path d="M2295 5778 c-30 -17 -71 -64 -67 -76 5 -15 32 -3 32 14 0 8 5 14 11
14 5 0 7 4 4 10 -3 5 9 19 27 30 34 21 28 28 -7 8z"/>
<path d="M4200 5679 l0 -40 38 3 c35 3 37 5 40 41 3 31 0 37 -17 37 -12 0 -21
-8 -24 -22 l-4 -23 -8 23 c-12 35 -25 26 -25 -19z"/>
<path d="M2285 5700 c8 -14 -4 -50 -17 -50 -5 0 -8 7 -4 15 3 9 0 15 -9 15
-11 0 -15 -11 -15 -40 0 -22 5 -40 10 -40 6 0 10 9 10 20 0 11 6 20 14 20 8 0
18 9 21 20 4 11 11 18 16 15 5 -4 9 3 9 14 0 15 -6 21 -21 21 -11 0 -17 -5
-14 -10z"/>
<path d="M2531 5674 c0 -11 3 -14 6 -6 3 7 2 16 -1 19 -3 4 -6 -2 -5 -13z"/>
<path d="M2218 5650 c2 -16 6 -30 8 -30 2 0 4 14 4 30 0 17 -4 30 -8 30 -5 0
-7 -13 -4 -30z"/>
<path d="M8404 5666 c-36 -16 -57 -60 -57 -120 0 -78 59 -128 130 -110 54 13
78 53 78 125 0 49 -4 62 -25 83 -31 31 -85 40 -126 22z"/>
<path d="M4291 5634 c0 -11 3 -14 6 -6 3 7 2 16 -1 19 -3 4 -6 -2 -5 -13z"/>
<path d="M7678 5570 c-76 -23 -160 -104 -179 -172 -7 -26 -10 -87 -7 -154 4
-94 8 -119 29 -160 31 -60 93 -109 166 -130 74 -22 252 -16 301 10 66 34 108
83 147 171 35 79 37 88 27 124 -7 21 -12 58 -12 83 0 57 -40 138 -85 173 -72
54 -110 65 -240 64 -66 0 -132 -4 -147 -9z m270 -140 c46 -28 62 -73 62 -174
0 -81 -2 -87 -31 -120 -36 -42 -80 -56 -169 -55 -81 0 -127 16 -154 52 -18 24
-21 43 -21 127 0 111 13 140 76 172 51 27 192 25 237 -2z"/>
<path d="M2440 5550 c-9 -6 -10 -10 -3 -10 6 0 15 5 18 10 8 12 4 12 -15 0z"/>
<path d="M5088 5426 c-100 -38 -195 -123 -239 -211 -21 -44 -24 -64 -24 -160
0 -99 3 -116 27 -168 42 -88 99 -152 171 -187 215 -105 443 -28 548 187 21 42
24 62 24 163 0 99 -3 121 -22 160 -38 77 -116 155 -191 192 -59 29 -77 33
-162 35 -62 2 -108 -2 -132 -11z m202 -245 c41 -28 72 -100 64 -151 -13 -81
-93 -140 -170 -125 -83 15 -150 119 -120 187 41 97 151 140 226 89z"/>
<path d="M6552 5419 c-66 -26 -168 -119 -204 -186 -105 -193 -14 -457 188
-550 149 -68 340 -22 460 111 67 73 94 142 94 235 0 166 -91 311 -238 379 -80
37 -222 42 -300 11z m209 -242 c122 -82 97 -249 -41 -272 -53 -9 -99 8 -141
51 -31 32 -34 41 -34 94 0 48 4 63 25 86 62 67 131 82 191 41z"/>
<path d="M3943 5243 c9 -2 17 -13 17 -24 0 -12 7 -19 20 -19 11 0 20 -6 20
-14 0 -14 -42 -26 -91 -26 -29 0 -29 -1 -29 -60 0 -53 -2 -60 -20 -60 -16 0
-20 -7 -20 -30 0 -23 4 -30 20 -30 11 0 20 -7 20 -15 0 -8 -9 -15 -20 -15 -11
0 -20 -7 -20 -15 0 -10 11 -15 35 -15 28 0 35 -4 35 -20 0 -17 -7 -20 -57 -22
-167 -4 160 -16 481 -17 337 -1 358 0 351 17 -36 84 -47 265 -20 329 8 19 15
37 15 39 0 2 -170 3 -377 3 -208 -1 -370 -3 -360 -6z m54 -19 c-3 -3 -12 -4
-19 -1 -8 3 -5 6 6 6 11 1 17 -2 13 -5z"/>
<path d="M5757 5208 c10 -55 10 -238 0 -305 l-9 -53 215 0 215 0 -14 63 c-19
91 -17 204 5 276 l19 61 -220 0 -220 0 9 -42z"/>
<path d="M6903 4300 c-143 -29 -243 -127 -243 -241 0 -59 18 -112 52 -154 37
-44 63 -58 206 -105 63 -21 123 -46 133 -56 25 -22 25 -76 0 -98 -57 -51 -149
-37 -323 52 -5 2 -8 -2 -8 -8 0 -6 -16 -36 -36 -66 -20 -30 -35 -57 -33 -59 3
-2 31 -20 64 -40 200 -120 414 -92 504 67 38 65 45 106 31 174 -20 94 -60 126
-237 190 -131 46 -157 63 -161 101 -8 84 159 108 263 37 33 -22 36 -22 42 -6
16 48 46 108 60 124 9 10 14 20 12 21 -24 18 -138 58 -189 66 -73 12 -78 12
-137 1z"/>
<path d="M1863 4286 c-53 -17 -100 -46 -140 -88 -105 -109 -76 -290 57 -358
19 -9 80 -32 134 -50 101 -33 146 -64 146 -97 -1 -41 -48 -73 -108 -73 -53 0
-158 33 -203 64 l-36 25 -36 -72 c-42 -85 -40 -89 52 -131 184 -82 339 -69
446 38 65 65 84 122 66 200 -22 97 -80 146 -251 211 -138 53 -170 93 -116 144
50 47 151 47 231 0 31 -18 38 -20 46 -8 5 8 9 19 9 26 0 6 15 32 34 56 l35 45
-57 27 c-117 56 -218 69 -309 41z"/>
<path d="M4594 4290 c-60 -19 -128 -73 -161 -130 -44 -73 -46 -148 -5 -223 34
-63 88 -99 202 -134 116 -35 158 -58 166 -89 13 -53 -32 -94 -105 -94 -52 0
-159 34 -204 64 -29 20 -36 22 -41 9 -3 -8 -22 -39 -42 -69 -35 -52 -36 -56
-19 -74 22 -25 144 -75 219 -90 97 -20 213 6 290 65 44 34 96 134 96 187 0 77
-48 151 -123 189 -21 11 -77 34 -125 50 -109 39 -152 69 -152 109 0 19 9 36
28 50 23 19 36 22 97 18 49 -3 86 -13 122 -31 l51 -25 13 31 c7 18 24 50 37
71 l25 40 -22 17 c-45 37 -133 62 -226 65 -49 2 -104 -1 -121 -6z"/>
<path d="M5500 4285 c-73 -24 -134 -76 -165 -140 -24 -49 -27 -64 -22 -122 9
-116 69 -173 243 -228 113 -37 144 -57 144 -95 0 -49 -38 -80 -98 -80 -48 0
-150 28 -205 57 -16 8 -30 13 -31 11 -22 -27 -76 -116 -76 -124 0 -6 37 -30
83 -53 149 -74 267 -78 384 -11 123 70 167 226 93 329 -36 49 -78 74 -201 121
-147 56 -168 73 -155 125 17 67 178 75 267 14 l27 -19 36 76 c20 42 34 80 31
84 -3 4 -35 20 -72 35 -84 34 -212 43 -283 20z"/>
<path d="M7290 4209 l0 -94 114 3 c111 3 113 3 120 -20 3 -13 6 -160 6 -328
l0 -305 83 3 c45 2 84 6 87 9 3 3 7 148 9 324 l3 319 117 0 116 0 2 85 1 85
-313 0 c-172 0 -320 3 -329 6 -14 5 -16 -6 -16 -87z"/>
<path d="M2560 4280 c0 -11 -136 -367 -170 -445 -24 -55 -117 -319 -122 -348
-3 -16 6 -18 82 -20 l86 -2 27 60 c14 33 31 72 37 88 l10 27 159 0 159 0 28
-82 29 -83 98 -5 c53 -3 97 -2 97 2 0 10 -96 258 -216 558 l-102 255 -101 3
c-64 2 -101 -1 -101 -8z m207 -472 c5 -15 -1 -18 -39 -18 -91 0 -168 12 -168
27 0 7 13 42 29 78 16 35 37 90 46 122 9 32 18 65 21 73 5 12 80 -180 111
-282z"/>
<path d="M3145 3878 c0 -223 2 -408 5 -410 3 -2 123 -2 268 0 l262 3 0 85 0
85 -175 -3 -175 -3 -2 325 -3 325 -90 0 -91 0 1 -407z"/>
<path d="M3748 3913 c1 -208 4 -393 5 -411 l2 -34 275 1 275 0 3 86 3 85 -191
0 -190 0 0 64 c0 35 -3 72 -7 82 -6 16 5 17 165 10 l172 -7 0 24 c0 13 -3 52
-6 86 l-7 61 -158 0 -159 0 0 81 0 80 184 -3 185 -3 3 80 c2 44 2 83 0 88 -2
4 -128 7 -280 7 l-277 0 3 -377z"/>
<path d="M5898 4270 c3 -8 15 -31 27 -50 12 -19 50 -87 85 -150 34 -63 87
-156 116 -205 l54 -91 0 -152 0 -152 93 0 92 0 -3 152 -2 153 66 115 c73 128
214 387 214 395 0 3 -42 5 -94 5 -89 0 -95 -1 -102 -22 -11 -37 -166 -328
-174 -328 -4 0 -11 12 -14 28 -4 15 -43 92 -88 172 l-80 145 -98 0 c-84 1 -97
-1 -92 -15z"/>
<path d="M8032 3879 l3 -410 277 -2 278 -2 0 88 0 87 -190 0 -190 0 0 79 0 79
172 -5 171 -6 -6 24 c-4 13 -7 52 -7 87 l0 62 -164 0 -163 0 -7 31 c-3 17 -6
53 -6 80 l0 49 195 0 195 0 0 85 0 85 -280 0 -280 0 2 -411z"/>
<path d="M8709 4183 c0 -60 -2 -198 -3 -308 -2 -110 -1 -246 2 -302 l5 -103
77 0 77 0 6 68 c4 37 7 157 8 267 1 184 2 197 15 167 50 -114 150 -321 166
-344 16 -23 27 -28 63 -28 42 0 44 1 83 63 38 61 114 225 152 332 l19 50 0
-287 1 -288 89 0 89 0 -3 408 -3 407 -104 3 -103 3 -67 -123 c-37 -68 -87
-164 -110 -214 l-44 -92 -27 68 c-16 37 -52 110 -80 162 -29 51 -63 117 -76
146 l-24 52 -104 0 -103 0 -1 -107z"/>
<path d="M4381 3103 c-51 -25 -73 -67 -68 -131 5 -66 30 -102 86 -122 39 -14
45 -13 79 5 105 57 109 208 7 251 -44 18 -62 17 -104 -3z m98 -69 c43 -55 15
-134 -48 -134 -61 0 -86 99 -35 139 36 28 58 26 83 -5z"/>
<path d="M5942 3095 c-19 -16 -32 -36 -32 -50 0 -28 34 -72 63 -80 12 -4 32
-14 45 -21 18 -12 20 -18 12 -34 -13 -24 -39 -26 -55 -4 -17 24 -55 9 -55 -22
0 -27 31 -44 80 -44 42 0 90 49 90 92 0 40 -19 60 -72 78 -68 21 -43 67 28 54
26 -5 34 -3 34 9 0 22 -25 38 -68 44 -31 4 -44 0 -70 -22z"/>
<path d="M3967 3082 c-15 -15 -27 -33 -27 -39 0 -20 42 -64 81 -83 29 -16 39
-26 39 -45 0 -30 -28 -34 -65 -9 -22 14 -24 14 -34 -3 -11 -22 -5 -35 26 -52
48 -25 112 -2 133 49 19 46 1 77 -61 102 -40 17 -49 25 -47 42 3 18 10 21 50
21 53 0 66 8 48 30 -8 10 -30 15 -64 15 -44 0 -56 -4 -79 -28z"/>
<path d="M5308 3102 c-16 -3 -18 -18 -18 -128 l0 -124 101 0 c98 0 100 0 97
23 -3 20 -9 22 -65 25 -59 3 -63 4 -63 27 0 22 4 24 58 27 49 3 57 6 57 23 0
17 -8 20 -57 23 -57 3 -58 4 -58 32 l0 30 65 0 c63 0 65 1 65 25 0 26 0 26
-82 24 -46 -2 -91 -4 -100 -7z"/>
<path d="M6365 3098 c-3 -7 -23 -64 -45 -127 -22 -63 -38 -117 -34 -120 3 -3
17 -6 30 -6 18 -1 24 4 24 20 0 36 14 46 60 43 40 -3 45 -6 52 -35 6 -21 15
-33 26 -33 43 1 43 13 1 131 -47 130 -53 139 -86 139 -13 0 -26 -6 -28 -12z
m53 -110 c10 -38 10 -38 -19 -38 -33 0 -33 1 -18 54 12 43 22 39 37 -16z"/>
<path d="M6709 3106 c-2 -2 -3 -61 -1 -130 l3 -126 30 0 29 0 1 73 1 72 15
-42 c16 -47 33 -53 63 -23 l20 20 0 -34 c0 -51 9 -66 39 -66 l26 0 -3 130 -3
130 -29 0 c-28 0 -30 -3 -36 -50 -8 -64 -29 -83 -55 -51 -10 12 -23 40 -29 62
-9 34 -15 39 -39 39 -15 0 -30 -2 -32 -4z"/>
<path d="M7143 3094 c-5 -15 3 -245 9 -248 2 0 45 0 96 2 81 3 92 6 92 22 0
20 -27 30 -87 30 -39 0 -43 2 -43 25 0 22 5 25 50 31 40 5 50 10 50 25 0 16
-8 19 -50 19 -49 0 -50 1 -50 30 0 29 2 30 44 30 57 0 76 8 76 31 0 17 -8 19
-90 19 -74 0 -92 -3 -97 -16z"/>
<path d="M4760 2978 l5 -123 63 -3 c63 -3 92 7 92 33 0 8 -19 14 -50 17 -28 3
-53 8 -56 10 -3 3 -8 47 -11 97 -6 84 -8 91 -27 91 -20 0 -21 -3 -16 -122z"/>
<path d="M4980 3013 c0 -59 -5 -98 -15 -117 -9 -16 -14 -30 -12 -32 1 -1 37
-6 80 -10 l77 -7 0 31 c0 34 -13 42 -71 42 l-39 0 0 90 c0 53 -4 90 -10 90 -6
0 -10 -36 -10 -87z"/>
<path d="M1684 3028 c-3 -4 -2 -19 2 -33 l6 -25 702 0 c387 0 825 -3 974 -7
l272 -6 0 36 0 37 -482 1 c-266 1 -705 2 -976 3 -272 0 -496 -2 -498 -6z"/>
<path d="M7612 3003 l3 -38 148 0 c81 0 514 1 963 3 l815 2 -3 28 -3 27 -280
6 c-154 4 -587 7 -963 8 l-683 1 3 -37z"/>
</g>
</svg>
